<svg width="500" height="500" viewBox="0 0 500 500" fill="none" xmlns="http://www.w3.org/2000/svg">
<rect x="100" y="130" width="300" height="50" rx="10" fill="#5B9ED7"/>
<rect x="100" y="200" width="300" height="50" rx="10" fill="#5B9ED7"/>
<rect x="100" y="270" width="300" height="50" rx="10" fill="#5B9ED7"/>
<rect x="100" y="340" width="300" height="50" rx="10" fill="#5B9ED7"/>
<path opacity="0.5" d="M445.667 130.333C445.667 173.595 410.595 208.667 367.333 208.667C324.071 208.667 289 173.595 289 130.333C289 87.071 324.071 52 367.333 52C410.595 52 445.667 87.071 445.667 130.333Z" fill="#FFD500"/>
<path d="M354.899 102.902L356.183 100.599C361.144 91.6999 363.625 87.25 367.333 87.25C371.042 87.25 373.522 91.6998 378.483 100.599L379.767 102.902C381.176 105.431 381.881 106.695 382.98 107.53C384.079 108.364 385.449 108.674 388.186 109.293L390.678 109.857C400.312 112.037 405.129 113.127 406.275 116.812C407.421 120.497 404.137 124.337 397.57 132.018L395.87 134.004C394.004 136.186 393.071 137.278 392.651 138.628C392.232 139.978 392.373 141.434 392.655 144.346L392.912 146.996C393.905 157.243 394.401 162.367 391.4 164.644C388.4 166.922 383.891 164.845 374.871 160.692L372.537 159.617C369.973 158.438 368.692 157.847 367.333 157.847C365.975 157.847 364.694 158.438 362.13 159.617L359.796 160.692C350.776 164.845 346.266 166.922 343.266 164.644C340.266 162.367 340.762 157.243 341.755 146.996L342.012 144.346C342.294 141.434 342.435 139.978 342.015 138.628C341.596 137.278 340.662 136.186 338.796 134.004L337.097 132.018C330.529 124.337 327.246 120.497 328.392 116.812C329.538 113.127 334.355 112.037 343.988 109.857L346.481 109.293C349.218 108.674 350.587 108.364 351.686 107.53C352.785 106.695 353.49 105.431 354.899 102.902Z" fill="#FFD500"/>
</svg>
